<?xml version="1.0" encoding="iso-8859-1"?>
<!-- Generator: Adobe Illustrator 21.0.0, SVG Export Plug-In . SVG Version: 6.00 Build 0)  -->
<svg version="1.1" id="Capa_1" xmlns="http://www.w3.org/2000/svg" xmlns:xlink="http://www.w3.org/1999/xlink" x="0px" y="0px"
	 viewBox="0 0 512.002 512.002" style="enable-background:new 0 0 512.002 512.002;" xml:space="preserve">
<g>
	<path style="fill:#00C56E;" d="M255.984,233.92c-17.999-31.593-58.202-42.614-89.795-24.616c-4.985,2.84-9.459,6.233-13.387,10.059
		c-20.962,20.414-26.387,53.129-11.23,79.736l0.074,0.13c-12.493,7.117-21.769,17.706-27.306,29.861
		c-51.036,2.987-65.214-29.706-65.214-29.706c5.945-49.859,43.851-61.352,43.851-61.352c-41.268-41.607-49.885-80.264-49.885-80.264
		c50.087-40.118,109.589-10.838,109.589-10.838c-40.581-77.856-1.697-136.929-1.697-136.929
		C238.625,16.649,288.6,89.208,288.6,89.208c28.323-28.132,49.185-49.236,49.185-49.236c35.206,54.705,20.57,113.434,20.57,113.434
		c-20.504-19.337-51.992-23.957-77.756-9.279C249.006,162.125,237.985,202.327,255.984,233.92z"/>
	<g>
		<path style="fill:#DC48B2;" d="M231.366,323.717c-17.893-31.574-6.858-71.691,24.692-89.665
			c31.551-17.975,71.688-7.006,89.722,24.49c0.023,0.042,0.048,0.085,0.072,0.126c0.024,0.042,0.048,0.084,0.072,0.126
			c4.066,7.174,6.635,14.79,7.813,22.486c-21.897,14.435-32.6,40.093-28.803,64.908c-1.2,0.791-2.43,1.552-3.698,2.275
			c-1.267,0.722-2.549,1.392-3.842,2.021c-19.41-15.921-46.939-19.798-70.523-8.323c-6.019-4.938-11.261-11.032-15.358-18.188
			c-0.024-0.042-0.048-0.084-0.072-0.126C231.417,323.802,231.393,323.759,231.366,323.717z"/>
		<path style="fill:#DC48B2;" d="M345.78,258.541c-18.034-31.496-58.171-42.464-89.724-24.489l-0.072-0.131
			c-17.999-31.593-6.978-71.796,24.616-89.794c25.763-14.677,57.252-10.057,77.756,9.279c2.847,2.685,5.482,5.654,7.861,8.894
			c1.498,2.04,2.895,4.189,4.178,6.441l0.072,0.131c-31.54,17.97-42.575,58.069-24.702,89.639
			C345.769,258.522,345.775,258.531,345.78,258.541z"/>
		<path style="fill:#DC48B2;" d="M246.872,342.158c23.583-11.475,51.113-7.597,70.523,8.323c-0.002,0.001-0.003,0.001-0.005,0.003
			c-19.409-15.919-46.932-19.794-70.513-8.322C246.875,342.161,246.873,342.159,246.872,342.158z M246.872,342.158
			c-1.293,0.629-2.574,1.305-3.842,2.026c-1.268,0.722-2.502,1.48-3.702,2.272c0,0.002,0,0.004,0.001,0.006
			c-21.894,14.435-32.595,40.088-28.799,64.899c-0.002,0.001-0.003,0.002-0.005,0.003c1.185,7.743,3.781,15.404,7.89,22.615
			c17.998,31.594,58.201,42.614,89.795,24.616l0.897-0.526c-10.317-29.156,1.143-62.359,28.613-78.577
			c-1.27-3.587-2.868-7.112-4.807-10.537c-0.005-0.009-0.011-0.019-0.016-0.028c-0.024-0.042-0.048-0.084-0.072-0.126
			c-0.024-0.042-0.048-0.084-0.072-0.126c-4.098-7.157-9.337-13.255-15.358-18.194C297.984,334.561,270.455,330.685,246.872,342.158
			z"/>
		<path style="fill:#DC48B2;" d="M309.105,458.07c-10.315-29.155,1.146-62.353,28.615-78.572c-0.001-0.002-0.001-0.003-0.002-0.005
			c0.298-0.176,0.597-0.35,0.899-0.522c0.302-0.172,0.604-0.341,0.907-0.507c0.001,0.001,0.002,0.003,0.003,0.004
			c27.959-15.359,62.361-8.289,82.18,15.453c2.476,2.966,4.724,6.191,6.704,9.666c17.999,31.593,6.977,71.796-24.616,89.794
			c-31.593,17.999-71.796,6.977-89.795-24.616C312.023,465.291,310.394,461.712,309.105,458.07z"/>
		<path style="fill:#DC48B2;" d="M231.3,323.597c-0.025-0.044-0.051-0.087-0.073-0.133
			C231.251,323.509,231.276,323.553,231.3,323.597L231.3,323.597z M222.189,311.304c-20.35-21.658-53.579-27.434-80.541-12.076
			c-12.495,7.118-21.771,17.707-27.308,29.862c-8.465,18.585-8.191,40.833,2.69,59.933c17.999,31.594,58.202,42.614,89.795,24.616
			c1.267-0.722,2.497-1.483,3.697-2.275c-3.797-24.815,6.907-50.473,28.803-64.908c-1.176-7.686-3.74-15.292-7.797-22.457
			c-0.005-0.01-0.011-0.019-0.016-0.028c-0.024-0.042-0.048-0.084-0.072-0.126c-0.025-0.043-0.049-0.086-0.072-0.131
			c-0.024-0.038-0.047-0.078-0.069-0.118c-2.338-4.06-5.042-7.778-8.048-11.136C222.901,312.07,222.547,311.685,222.189,311.304z"/>
		<path style="fill:#DC48B2;" d="M231.3,323.597c0.023,0.039,0.046,0.079,0.066,0.119
			C231.346,323.676,231.324,323.636,231.3,323.597L231.3,323.597z M223.723,280.318c-2.428,14.363-0.129,29.616,7.577,43.28
			c-2.336-4.061-5.041-7.779-8.048-11.136c-0.348-0.392-0.702-0.778-1.062-1.157c-20.35-21.658-53.579-27.434-80.541-12.076
			l-0.076-0.129c-15.159-26.608-9.733-59.322,11.23-79.736c3.928-3.825,8.401-7.218,13.387-10.059
			c21.555-12.28,47.117-11.052,66.901,1.002c9.214,5.613,17.175,13.575,22.894,23.614l0.072,0.131
			c-0.47,0.268-0.935,0.54-1.396,0.818c-0.444,0.268-0.885,0.54-1.321,0.817c-16.13,10.229-26.391,26.449-29.519,44.077
			C223.786,279.948,223.755,280.133,223.723,280.318L223.723,280.318z M230.771,322.636c0.15,0.276,0.302,0.552,0.455,0.828
			c0.023,0.045,0.048,0.089,0.073,0.133C231.122,323.277,230.945,322.957,230.771,322.636z"/>
		<path style="fill:#DC48B2;" d="M357.44,279.007c-31.593,17.999-42.615,58.202-24.616,89.795c1.979,3.475,4.228,6.7,6.704,9.666
			c27.958-15.359,62.361-8.289,82.18,15.453c0.303-0.167,0.608-0.331,0.91-0.504c31.594-17.998,42.614-58.201,24.616-89.794
			S389.033,261.009,357.44,279.007z"/>
		<path style="fill:#DC48B2;" d="M370.468,168.872c-31.593,17.999-42.615,58.202-24.616,89.795
			c4.108,7.212,9.377,13.35,15.435,18.317c23.581-11.472,51.104-7.596,70.513,8.322c1.294-0.629,2.578-1.3,3.847-2.023
			c31.594-17.998,42.614-58.201,24.616-89.794C442.265,161.895,402.062,150.873,370.468,168.872z"/>
	</g>
</g>
<path d="M390.349,398.124c-4.932-2.481-10.945-0.494-13.428,4.44c-2.481,4.934-0.494,10.947,4.44,13.428
	c3.989,2.007,7.267,5.119,9.477,9c4.903,8.606,3.552,19.622-3.287,26.787c-3.813,3.995-3.666,10.326,0.329,14.14
	c1.937,1.849,4.421,2.766,6.903,2.766c2.637,0,5.271-1.037,7.234-3.095c12.894-13.508,15.442-34.273,6.199-50.497
	C404.051,407.775,397.873,401.907,390.349,398.124z"/>
<path d="M447.907,287.229c21.662-15.873,33.502-42.22,30.559-69.358c-0.594-5.491-5.549-9.458-11.02-8.864
	c-5.491,0.595-9.46,5.529-8.864,11.021c2.317,21.39-7.828,42.113-25.967,53.422c-10.007-6.78-21.373-10.964-33.076-12.443
	c-0.092-0.012-0.184-0.025-0.276-0.037c-1.05-0.129-2.103-0.234-3.158-0.319c-0.294-0.024-0.588-0.044-0.883-0.065
	c-0.875-0.06-1.75-0.108-2.627-0.139c-0.442-0.016-0.885-0.023-1.328-0.031c-0.666-0.011-1.332-0.015-1.999-0.009
	c-0.483,0.004-0.965,0.009-1.448,0.022c-0.819,0.023-1.638,0.058-2.457,0.108c-0.558,0.034-1.115,0.079-1.672,0.125
	c-0.439,0.036-0.877,0.078-1.316,0.122c-0.915,0.091-1.829,0.201-2.743,0.326c-0.422,0.058-0.844,0.115-1.266,0.181
	c-0.584,0.09-1.167,0.185-1.751,0.289c-0.544,0.097-1.087,0.206-1.63,0.315c-0.768,0.155-1.535,0.321-2.301,0.5
	c-0.5,0.117-0.998,0.24-1.496,0.367c-0.614,0.157-1.227,0.319-1.839,0.492c-0.723,0.204-1.444,0.42-2.163,0.647
	c-0.435,0.138-0.869,0.279-1.303,0.425c-0.88,0.295-1.757,0.602-2.629,0.931c-3.376-3.432-6.294-7.294-8.712-11.538
	c-0.001-0.001-0.001-0.003-0.002-0.004c-0.001-0.001-0.002-0.003-0.002-0.004c-0.05-0.089-0.094-0.179-0.144-0.268
	c-0.435-0.774-0.854-1.553-1.248-2.339c-0.043-0.086-0.082-0.175-0.125-0.262c-0.383-0.772-0.751-1.547-1.095-2.329l0,0
	c-10.945-24.9-2.203-54.493,20.871-69.357c0.061-0.039,0.119-0.082,0.18-0.121c0.797-0.509,1.61-1,2.44-1.473
	c0.002-0.001,0.003-0.002,0.004-0.003c19.46-11.087,43.568-9.501,61.417,4.036c4.399,3.338,10.672,2.476,14.012-1.924
	c3.337-4.4,2.476-10.674-1.925-14.012c-6.367-4.83-13.325-8.527-20.596-11.1c8.049-6.394,14.506-14.17,18.415-22.885
	c7.983-17.802,3.374-36.258-12.333-49.371c-15.907-13.282-41.696-9.53-57.486,8.36c-3.561,4.035-5.757,8.939-6.424,14.189
	c-2.162-20.914-8.606-45.903-24.305-70.295c-1.642-2.552-4.354-4.22-7.372-4.535c-3.01-0.313-6.015,0.758-8.15,2.916
	c-0.188,0.191-17.266,17.462-41.143,41.238c-6.288-7.467-16.564-18.514-30.583-29.855C226.681,18.219,189.61,2.903,151.74,0.03
	c-3.617-0.284-7.111,1.438-9.108,4.473c-0.442,0.671-10.878,16.739-15.842,42.903c-3.765,19.845-4.906,49.039,7.56,82.841
	c-4.947-1.179-10.534-2.222-16.595-2.883c-30.345-3.311-58.325,4.505-80.915,22.599c-2.978,2.385-4.339,6.257-3.509,9.981
	c0.349,1.561,8.334,35.938,43.153,75.129c-13.572,8.585-32.975,26.955-37.288,63.126c-0.21,1.757,0.051,3.539,0.755,5.163
	c0.631,1.454,14.734,32.617,60.527,35.663c-4.26,18.022-2.003,37.628,7.864,54.95c1.543,2.707,3.264,5.34,5.115,7.827
	c3.297,4.429,9.563,5.348,13.993,2.049c4.431-3.298,5.348-9.563,2.049-13.994c-1.367-1.836-2.639-3.782-3.778-5.783
	c-15.24-26.752-5.875-60.916,20.877-76.156c0.221-0.126,0.448-0.237,0.67-0.36c0.607-0.335,1.213-0.67,1.827-0.98
	c0.147-0.074,0.297-0.139,0.445-0.212c24.422-12.059,54.068-4.565,69.899,17.297c0.065,0.09,0.134,0.176,0.199,0.267
	c0.41,0.573,0.802,1.165,1.193,1.757c0.136,0.207,0.279,0.407,0.413,0.615c0.344,0.538,0.671,1.093,0.999,1.646
	c0.167,0.282,0.344,0.555,0.507,0.841c0.001,0.002,0.002,0.004,0.003,0.006s0.003,0.004,0.004,0.006
	c2.415,4.24,4.249,8.718,5.479,13.372c-12.469,9.933-21.461,23.499-25.756,39.168c-0.172,0.627-0.313,1.258-0.468,1.886
	c-0.028,0.111-0.055,0.222-0.083,0.333c-0.521,2.148-0.949,4.305-1.281,6.467c-0.008,0.054-0.016,0.109-0.024,0.163
	c-0.798,5.277-1.037,10.578-0.72,15.833c-8.77,4.544-18.534,6.683-28.383,6.19c-5.536-0.282-10.211,3.975-10.484,9.491
	c-0.275,5.516,3.974,10.21,9.49,10.485c1.256,0.063,2.511,0.094,3.765,0.094c10.21,0,20.28-2.077,29.661-6.081
	c1.521,4.364,3.435,8.626,5.772,12.729c10.026,17.602,26.309,30.244,45.845,35.6c6.667,1.828,13.441,2.732,20.172,2.732
	c9.729,0,19.369-1.891,28.462-5.612c0.366,0.69,0.72,1.384,1.109,2.067c13.968,24.519,39.639,38.284,66.023,38.284
	c12.715,0,25.596-3.197,37.412-9.928c36.334-20.7,49.054-67.1,28.354-103.435c-0.393-0.69-0.813-1.354-1.224-2.026
	c13.264-10.026,22.821-24.046,27.29-40.349c5.355-19.536,2.783-39.988-7.244-57.59C453.571,294.543,450.872,290.735,447.907,287.229
	z M315.618,321.666c-0.235,1.191-0.441,2.384-0.618,3.579c-0.019,0.131-0.039,0.262-0.058,0.393
	c-0.497,3.477-0.75,6.961-0.762,10.438c-2.907-1.71-5.937-3.23-9.079-4.548c-0.042-0.017-0.084-0.034-0.125-0.051
	c-1.481-0.618-2.985-1.193-4.512-1.72c-0.056-0.019-0.111-0.04-0.167-0.059c-0.74-0.254-1.485-0.494-2.236-0.726
	c-0.138-0.042-0.276-0.082-0.413-0.124c-0.659-0.2-1.312-0.412-1.979-0.595c-15.669-4.296-31.923-3.478-46.826,2.181
	c-3.373-3.43-6.289-7.289-8.705-11.529c-0.002-0.003-0.003-0.006-0.005-0.009c-0.002-0.004-0.005-0.007-0.007-0.011
	c-0.049-0.086-0.092-0.174-0.14-0.261c-0.436-0.775-0.855-1.555-1.25-2.342c-0.04-0.081-0.076-0.164-0.116-0.245
	c-12.559-25.32-4.059-56.265,19.654-71.624c0.102-0.066,0.199-0.137,0.302-0.202c0.749-0.478,1.515-0.938,2.293-1.385
	c0.048-0.027,0.093-0.058,0.141-0.085c0.001,0,0.001-0.001,0.002-0.001c24.074-13.715,54.197-7.471,71.074,13.442
	c0.084,0.104,0.173,0.202,0.256,0.307c0.419,0.527,0.821,1.074,1.223,1.619c0.158,0.214,0.323,0.42,0.478,0.637
	c0.332,0.464,0.646,0.946,0.965,1.422c0.21,0.313,0.428,0.618,0.633,0.937c0.269,0.419,0.52,0.854,0.779,1.283
	c0.247,0.409,0.503,0.809,0.74,1.226c0.001,0.001,0.001,0.003,0.002,0.004s0.001,0.002,0.002,0.004
	c2.416,4.241,4.251,8.721,5.481,13.374c-12.469,9.933-21.461,23.499-25.756,39.168c-0.451,1.646-0.825,3.3-1.164,4.957
	C315.689,321.301,315.654,321.484,315.618,321.666z M146.398,285.887c-4.051-10.88-4.599-22.722-1.469-34.139
	c3.942-14.384,13.252-26.371,26.211-33.754c24.062-13.708,54.121-7.508,71.011,13.345c-0.006,0.004-0.011,0.009-0.016,0.013
	c-0.427,0.33-0.844,0.671-1.263,1.01c-0.304,0.247-0.606,0.495-0.906,0.746c-11.792,9.829-20.314,22.982-24.458,38.099
	c-1.804,6.582-2.687,13.268-2.709,19.914c-5.728-3.37-11.93-6.019-18.512-7.824c-16.034-4.395-32.683-3.441-47.869,2.584
	C146.411,285.882,146.404,285.884,146.398,285.887z M356.445,166.02c0.024,0.058,0.048,0.116,0.073,0.173
	c-0.415,0.321-0.82,0.653-1.228,0.983c-0.309,0.25-0.616,0.503-0.92,0.758c-11.788,9.829-20.308,22.979-24.451,38.093
	c-1.808,6.596-2.691,13.297-2.709,19.958c-0.195-0.115-0.393-0.221-0.589-0.334c-1.828-1.054-3.695-2.028-5.599-2.924
	c-0.312-0.147-0.625-0.293-0.939-0.436c-0.613-0.278-1.227-0.552-1.847-0.814c-0.185-0.078-0.372-0.15-0.557-0.227
	c-1.229-0.508-2.47-0.982-3.723-1.425c-0.255-0.09-0.509-0.182-0.765-0.27c-0.662-0.226-1.326-0.443-1.994-0.651
	c-0.237-0.074-0.475-0.142-0.712-0.214c-1.292-0.388-2.592-0.743-3.902-1.063c-0.187-0.046-0.373-0.095-0.56-0.139
	c-0.679-0.16-1.36-0.308-2.043-0.449c-0.29-0.06-0.58-0.116-0.871-0.173c-2.131-0.416-4.278-0.742-6.441-0.975
	c-0.358-0.039-0.717-0.075-1.076-0.109c-0.644-0.06-1.287-0.118-1.933-0.162c-0.332-0.023-0.665-0.035-0.998-0.053
	c-1.101-0.06-2.204-0.098-3.309-0.11c-0.285-0.003-0.569-0.014-0.854-0.014c-0.127,0-0.254,0.008-0.381,0.009
	c-0.839,0.004-1.678,0.026-2.517,0.058c-0.36,0.014-0.72,0.028-1.079,0.047c-0.805,0.043-1.61,0.099-2.415,0.168
	c-0.396,0.033-0.792,0.07-1.189,0.11c-0.773,0.078-1.545,0.167-2.317,0.269c-0.43,0.057-0.86,0.119-1.29,0.184
	c-0.74,0.111-1.479,0.23-2.218,0.364c-0.464,0.084-0.927,0.176-1.39,0.269c-0.706,0.141-1.41,0.287-2.114,0.449
	c-0.497,0.114-0.992,0.24-1.487,0.365c-0.67,0.169-1.34,0.339-2.007,0.527c-0.53,0.149-1.057,0.313-1.585,0.474
	c-0.631,0.193-1.262,0.384-1.89,0.594c-0.566,0.189-1.129,0.396-1.692,0.6c-0.588,0.212-1.177,0.42-1.762,0.648
	c-0.117,0.046-0.236,0.084-0.353,0.13c-4.051-10.88-4.599-22.721-1.469-34.139c3.942-14.384,13.252-26.371,26.21-33.754
	C309.556,139.14,339.533,145.281,356.445,166.02z M379.784,129.22c5.486,4.841,12.494,7.338,19.713,7.017
	c7.365-0.322,14.077-3.509,18.897-8.972c3.654-4.141,3.26-10.461-0.882-14.116c-4.142-3.654-10.461-3.258-14.115,0.882
	c-1.192,1.351-2.889,2.141-4.775,2.224c-2.036,0.088-4.018-0.633-5.603-2.032c-1.585-1.398-2.549-3.283-2.712-5.305
	c-0.153-1.883,0.42-3.664,1.613-5.016c9.426-10.681,22.954-11.851,29.671-6.242c8.925,7.452,11.248,16.143,6.901,25.832
	c-5.529,12.327-20.72,23.881-38.883,27.941c-0.929,0.168-1.855,0.352-2.779,0.555c-4.982,0.887-10.155,1.196-15.391,0.807
	c-0.732-0.88-1.48-1.74-2.247-2.58c1.169-6.751,2.717-19.069,2.084-34.553C372.706,120.857,375.63,125.554,379.784,129.22z
	 M59.479,297.477c6.122-39.742,35.205-49.49,36.401-49.874c3.356-1.018,5.935-3.719,6.794-7.12c0.859-3.4-0.126-7.003-2.596-9.492
	c-29.217-29.457-41.253-57.479-45.384-69.391c17.325-11.907,37.559-16.757,60.231-14.421c19.292,1.986,33.226,8.67,33.342,8.727
	c3.877,1.909,8.547,1.108,11.568-1.984c3.021-3.093,3.714-7.777,1.716-11.612c-15.602-29.93-20.741-60.303-15.278-90.275
	c2.65-14.543,7.297-25.494,10.275-31.456c31.739,3.668,61.757,16.733,89.317,38.889c22.224,17.866,34.387,35.252,34.499,35.414
	c1.681,2.44,4.357,4.01,7.309,4.285c2.947,0.273,5.871-0.773,7.974-2.862c16.906-16.791,31.258-31.185,40.034-40.012
	c15.803,30.627,16.553,61.403,15.133,79.23c-22.523-12.827-51.055-13.82-75.166-0.086c-17.601,10.027-30.243,26.309-35.6,45.845
	c-0.454,1.656-0.83,3.32-1.17,4.987c-3.37-16.356-8.945-39.653-17.226-63.376c-1.82-5.214-7.523-7.968-12.737-6.146
	c-5.215,1.82-7.967,7.522-6.146,12.738c8.453,24.22,14.033,48.44,17.193,64.264c-19.029-5.537-40.184-3.694-58.724,6.867
	c-3.71,2.113-7.185,4.52-10.432,7.161c-10.333-4.445-27.362-13.119-34.297-22.39c-3.307-4.422-9.574-5.326-13.998-2.018
	c-4.423,3.308-5.326,9.575-2.019,13.998c8.539,11.418,24.526,20.468,35.957,25.886c-4.831,6.972-8.501,14.786-10.811,23.208
	c-4.531,16.531-3.364,33.711,3.17,49.271c-8.647,6.462-15.601,14.522-20.653,23.54C76.297,319.359,63.243,303.436,59.479,297.477z
	 M260.856,455.241c-14.384-3.943-26.37-13.252-33.754-26.21c-3.439-6.037-5.671-12.534-6.692-19.202
	c-0.705-4.62-0.811-9.245-0.369-13.78c0.011-0.113,0.021-0.226,0.033-0.339c0.06-0.578,0.129-1.154,0.206-1.729
	c0.021-0.154,0.046-0.308,0.068-0.462c0.154-1.067,0.338-2.127,0.552-3.18c0.029-0.142,0.054-0.284,0.084-0.426
	c0.109-0.516,0.229-1.028,0.352-1.54c0.054-0.226,0.111-0.452,0.169-0.678c2.871-11.29,9.225-21.566,18.332-29.167
	c0.106-0.088,0.212-0.175,0.319-0.262c0.443-0.365,0.891-0.725,1.347-1.077c0.187-0.144,0.38-0.282,0.569-0.424
	c0.654-0.491,1.321-0.968,2-1.432c1.265-0.864,2.561-1.691,3.907-2.458c1.055-0.601,2.125-1.165,3.206-1.694
	c0.021-0.01,0.044-0.016,0.065-0.026c12.694-6.175,27.059-7.156,40.178-3.299c0.227,0.067,0.453,0.134,0.678,0.204
	c0.5,0.154,0.999,0.311,1.496,0.479c0.147,0.05,0.291,0.104,0.437,0.155c1.003,0.349,1.998,0.727,2.982,1.134
	c0.148,0.061,0.298,0.121,0.446,0.183c0.532,0.226,1.061,0.46,1.588,0.702c0.104,0.048,0.206,0.097,0.31,0.145
	c4.131,1.934,8.061,4.389,11.681,7.358c0.005,0.004,0.01,0.007,0.014,0.01c5.202,4.275,9.641,9.498,13.075,15.525
	c0.392,0.688,0.769,1.384,1.132,2.087c-0.165,0.125-0.322,0.257-0.486,0.384c-0.447,0.346-0.89,0.695-1.328,1.05
	c-0.416,0.337-0.823,0.682-1.231,1.027c-0.794,0.672-1.571,1.358-2.332,2.058c-0.335,0.308-0.674,0.612-1.003,0.925
	c-0.473,0.451-0.933,0.911-1.392,1.372c-0.288,0.289-0.574,0.581-0.857,0.874c-0.462,0.48-0.922,0.961-1.37,1.452
	c-0.223,0.244-0.438,0.494-0.658,0.741c-0.826,0.928-1.626,1.873-2.401,2.836c-0.233,0.289-0.468,0.575-0.696,0.867
	c-0.394,0.505-0.779,1.015-1.159,1.529c-0.263,0.354-0.521,0.712-0.777,1.071c-0.35,0.491-0.702,0.98-1.04,1.478
	c-0.525,0.772-1.036,1.553-1.532,2.343c-0.244,0.39-0.475,0.787-0.712,1.181c-0.337,0.559-0.669,1.121-0.991,1.688
	c-0.212,0.375-0.422,0.751-0.628,1.13c-0.395,0.724-0.776,1.454-1.147,2.19c-0.106,0.211-0.218,0.418-0.322,0.63
	c-0.499,1.014-0.973,2.04-1.426,3.074c-0.045,0.102-0.087,0.206-0.131,0.308c-0.435,1.005-0.847,2.02-1.239,3.042
	c-0.027,0.07-0.054,0.141-0.081,0.211c-5.189,13.672-6.458,28.815-3.112,43.588C285.738,457.731,273.058,458.585,260.856,455.241z
	 M398.846,484.693c-8.7,4.957-18.182,7.311-27.545,7.31c-19.424-0.001-38.327-10.136-48.609-28.187
	c-1.845-3.239-3.322-6.588-4.458-9.997c-0.068-0.203-0.135-0.406-0.2-0.61c-0.233-0.726-0.452-1.455-0.654-2.187
	c-0.026-0.096-0.055-0.191-0.081-0.287c-3.107-11.515-2.367-23.565,1.744-34.403c0.003-0.008,0.006-0.015,0.009-0.023
	c0.293-0.771,0.606-1.534,0.933-2.292c0.055-0.128,0.111-0.255,0.167-0.383c0.278-0.632,0.571-1.257,0.872-1.879
	c0.097-0.201,0.194-0.402,0.294-0.601c0.27-0.539,0.553-1.072,0.84-1.603c0.135-0.25,0.267-0.502,0.406-0.75
	c0.263-0.469,0.54-0.931,0.817-1.393c0.172-0.286,0.336-0.576,0.513-0.858c0.23-0.369,0.476-0.729,0.715-1.093
	c0.526-0.799,1.071-1.587,1.638-2.36c0.139-0.189,0.272-0.382,0.413-0.569c0.346-0.459,0.707-0.909,1.068-1.358
	c0.163-0.202,0.322-0.407,0.488-0.607c0.363-0.439,0.738-0.871,1.115-1.3c0.177-0.202,0.354-0.403,0.535-0.602
	c0.382-0.421,0.771-0.837,1.167-1.247c0.189-0.196,0.381-0.391,0.573-0.584c0.403-0.406,0.81-0.808,1.227-1.202
	c0.195-0.184,0.395-0.365,0.592-0.547c0.429-0.395,0.86-0.788,1.303-1.17c0.18-0.156,0.367-0.305,0.55-0.459
	c1.49-1.252,3.057-2.433,4.695-3.538c0.277-0.187,0.549-0.379,0.831-0.561c0.426-0.276,0.862-0.54,1.297-0.805
	c0.487-0.297,0.967-0.601,1.466-0.885c0.51-0.29,1.027-0.555,1.543-0.828c0.436-0.231,0.872-0.465,1.313-0.684
	c0.315-0.156,0.634-0.3,0.952-0.45c1.777-0.84,3.582-1.581,5.409-2.22c0.222-0.078,0.443-0.161,0.665-0.236
	c0.557-0.187,1.118-0.358,1.679-0.527c0.254-0.076,0.508-0.155,0.763-0.228c0.555-0.158,1.112-0.305,1.671-0.445
	c0.26-0.065,0.52-0.13,0.781-0.192c0.559-0.132,1.119-0.256,1.68-0.371c0.26-0.053,0.52-0.102,0.78-0.151
	c0.564-0.107,1.129-0.209,1.695-0.298c0.254-0.04,0.509-0.073,0.763-0.109c0.573-0.082,1.146-0.163,1.72-0.227
	c0.231-0.026,0.462-0.042,0.694-0.064c0.95-0.094,1.901-0.161,2.853-0.206c0.441-0.021,0.883-0.048,1.324-0.058
	c0.327-0.008,0.653-0.001,0.979-0.003c0.548-0.003,1.095-0.006,1.642,0.007c0.274,0.006,0.548,0.021,0.822,0.032
	c0.614,0.024,1.228,0.053,1.841,0.097c0.213,0.015,0.425,0.034,0.638,0.052c0.7,0.059,1.398,0.127,2.095,0.211
	c0.128,0.015,0.256,0.031,0.384,0.047c12.345,1.586,24.058,7.257,32.982,16.427c0.058,0.06,0.115,0.121,0.173,0.181
	c0.538,0.558,1.065,1.131,1.582,1.714c0.133,0.15,0.264,0.301,0.396,0.453c2.359,2.721,4.491,5.705,6.34,8.951
	C434.963,435.29,425.597,469.452,398.846,484.693z M443.879,350.975c-3.343,12.197-10.543,22.67-20.562,30.076
	c-10.076-9.536-22.396-15.893-35.467-18.824c-0.152-0.035-0.305-0.064-0.457-0.098c-0.983-0.214-1.968-0.413-2.959-0.588
	c-0.307-0.055-0.615-0.101-0.923-0.152c-0.836-0.137-1.673-0.266-2.513-0.376c-0.451-0.059-0.904-0.108-1.357-0.159
	c-0.699-0.078-1.398-0.153-2.099-0.212c-0.58-0.049-1.162-0.086-1.744-0.123c-0.577-0.035-1.154-0.069-1.732-0.091
	c-0.689-0.027-1.378-0.04-2.069-0.049c-0.284-0.003-0.568-0.02-0.852-0.02c-0.191,0-0.383,0.012-0.574,0.013
	c-0.78,0.005-1.561,0.026-2.342,0.055c-0.396,0.015-0.792,0.031-1.189,0.052c-0.842,0.045-1.683,0.106-2.525,0.18
	c-0.343,0.03-0.685,0.061-1.027,0.095c-0.879,0.089-1.757,0.194-2.635,0.314c-0.313,0.043-0.626,0.087-0.939,0.134
	c-0.893,0.134-1.784,0.283-2.675,0.449c-0.305,0.057-0.611,0.116-0.915,0.177c-0.885,0.176-1.768,0.368-2.649,0.577
	c-0.319,0.076-0.636,0.154-0.954,0.234c-0.858,0.215-1.713,0.445-2.567,0.691c-0.347,0.1-0.694,0.205-1.04,0.311
	c-0.816,0.249-1.63,0.509-2.441,0.787c-0.386,0.132-0.77,0.271-1.154,0.409c-0.768,0.277-1.533,0.562-2.295,0.866
	c-0.163,0.064-0.328,0.119-0.49,0.185c-0.417-0.665-0.819-1.339-1.209-2.021c-0.003-0.006-0.006-0.011-0.009-0.017
	c-0.003-0.005-0.006-0.01-0.009-0.015c-3.434-6.032-5.663-12.521-6.684-19.182c-0.704-4.612-0.811-9.228-0.372-13.755
	c0.013-0.129,0.024-0.257,0.037-0.385c0.059-0.566,0.126-1.131,0.202-1.694c0.024-0.176,0.052-0.351,0.077-0.527
	c0.148-1.02,0.324-2.034,0.527-3.041c0.036-0.177,0.067-0.354,0.104-0.53c0.107-0.503,0.224-1.003,0.344-1.502
	c0.058-0.243,0.119-0.485,0.181-0.728c2.875-11.285,9.231-21.556,18.338-29.151c0.096-0.08,0.192-0.159,0.289-0.238
	c0.452-0.372,0.909-0.74,1.374-1.098c0.136-0.104,0.276-0.204,0.413-0.307c0.711-0.538,1.439-1.058,2.18-1.564
	c1.255-0.855,2.54-1.676,3.874-2.436c1.497-0.853,3.02-1.617,4.559-2.317c0.351-0.16,0.703-0.316,1.056-0.468
	c0.554-0.238,1.109-0.469,1.668-0.688c0.338-0.132,0.677-0.259,1.016-0.384c0.433-0.16,0.868-0.313,1.303-0.462
	c0.351-0.12,0.701-0.243,1.054-0.355c0.672-0.215,1.346-0.417,2.023-0.605c0.406-0.113,0.814-0.213,1.221-0.316
	c0.355-0.09,0.71-0.179,1.066-0.262c0.435-0.101,0.871-0.198,1.309-0.289c0.327-0.068,0.654-0.128,0.981-0.19
	c0.779-0.147,1.56-0.276,2.342-0.389c0.319-0.046,0.638-0.096,0.957-0.137c0.443-0.056,0.887-0.102,1.331-0.148
	c0.349-0.036,0.698-0.068,1.047-0.097c0.42-0.035,0.841-0.07,1.261-0.095c0.519-0.031,1.038-0.052,1.556-0.068
	c0.463-0.015,0.926-0.024,1.39-0.027c0.53-0.004,1.06-0.004,1.589,0.007c0.293,0.006,0.587,0.016,0.88,0.026
	c0.618,0.023,1.236,0.054,1.852,0.098c0.166,0.011,0.332,0.02,0.498,0.032c0.848,0.067,1.694,0.151,2.537,0.256
	c0.01,0.001,0.02,0.003,0.03,0.004c0.871,0.109,1.74,0.24,2.604,0.389c0.018,0.003,0.036,0.006,0.053,0.009
	c15.851,2.766,30.402,12.31,38.971,27.35C445.928,321.532,447.822,336.59,443.879,350.975z"/>
<path d="M150.16,406.821c-0.033-0.017-0.077-0.038-0.117-0.058c-4.921-2.408-10.88-0.4-13.336,4.512
	c-2.47,4.94-0.468,10.947,4.473,13.418c0.034,0.017,0.079,0.04,0.119,0.059c1.411,0.69,2.907,1.017,4.381,1.017
	c3.668,0,7.2-2.026,8.952-5.53C157.103,415.299,155.101,409.292,150.16,406.821z"/>
<path d="M451.537,198.375l0.09,0.159c1.838,3.237,5.2,5.044,8.669,5.044c1.678,0,3.382-0.423,4.947-1.313
	c4.804-2.726,6.471-8.859,3.745-13.664c-2.699-4.819-8.796-6.537-13.612-3.839C450.557,187.461,448.839,193.555,451.537,198.375z"/>
<path d="M192.918,104.595c1.67,3.699,5.31,5.888,9.12,5.888c1.375,0,2.773-0.286,4.108-0.888c5.034-2.272,7.273-8.195,5-13.23
	l-0.227-0.504c-2.268-5.036-8.188-7.28-13.225-5.014c-5.036,2.267-7.281,8.187-5.015,13.225L192.918,104.595z"/>
<path d="M304.528,386.271c3.964-3.846,4.059-10.177,0.213-14.142c-13.531-13.945-34.775-16.966-51.656-7.348
	c-2.052,1.169-4.02,2.52-5.851,4.014c-4.278,3.493-4.915,9.792-1.422,14.071c3.493,4.279,9.793,4.916,14.071,1.422
	c0.972-0.793,2.016-1.509,3.103-2.128c8.954-5.101,20.224-3.499,27.401,3.898c1.961,2.021,4.567,3.036,7.178,3.036
	C300.074,389.094,302.585,388.155,304.528,386.271z"/>
<path d="M369.777,299.598c-2.054,1.17-4.022,2.521-5.852,4.014c-4.278,3.493-4.915,9.792-1.422,14.071s9.794,4.915,14.071,1.422
	c0.97-0.791,2.014-1.508,3.103-2.128c8.954-5.101,20.223-3.5,27.4,3.898c1.961,2.021,4.567,3.036,7.178,3.036
	c2.509,0,5.02-0.938,6.963-2.823c3.964-3.846,4.059-10.177,0.213-14.142C407.902,293.001,386.659,289.98,369.777,299.598z"/>
<path d="M384.762,191.594c-2.054,1.17-4.023,2.52-5.852,4.014c-4.278,3.493-4.915,9.792-1.422,14.071
	c3.493,4.279,9.794,4.915,14.071,1.422c0.97-0.792,2.014-1.508,3.104-2.128c8.956-5.101,20.224-3.498,27.4,3.898
	c1.961,2.021,4.567,3.036,7.178,3.036c2.509,0,5.021-0.938,6.963-2.823c3.964-3.846,4.059-10.177,0.213-14.142
	C422.886,184.998,401.644,181.978,384.762,191.594z"/>
<path d="M321.918,265.467c-13.533-13.945-34.775-16.964-51.656-7.347c-2.054,1.17-4.023,2.521-5.852,4.014
	c-4.278,3.493-4.915,9.792-1.422,14.071c3.492,4.279,9.794,4.915,14.071,1.422c0.97-0.792,2.014-1.508,3.104-2.128
	c8.953-5.101,20.225-3.5,27.401,3.898c1.962,2.021,4.567,3.036,7.178,3.036c2.509,0,5.021-0.939,6.963-2.824
	C325.668,275.761,325.763,269.43,321.918,265.467z"/>
<path d="M165.453,342.758c8.958-5.103,20.226-3.499,27.402,3.898c1.961,2.021,4.567,3.036,7.178,3.036
	c2.509,0,5.02-0.938,6.963-2.823c3.964-3.846,4.059-10.177,0.213-14.142c-13.53-13.944-34.772-16.967-51.659-7.347
	c-2.053,1.17-4.02,2.521-5.848,4.013c-4.278,3.493-4.915,9.792-1.422,14.071c3.493,4.279,9.794,4.916,14.071,1.422
	C163.321,344.096,164.366,343.378,165.453,342.758z"/>
<g>
</g>
<g>
</g>
<g>
</g>
<g>
</g>
<g>
</g>
<g>
</g>
<g>
</g>
<g>
</g>
<g>
</g>
<g>
</g>
<g>
</g>
<g>
</g>
<g>
</g>
<g>
</g>
<g>
</g>
</svg>
