<svg height="511pt" viewBox="0 -19 511.99967 511" width="511pt" xmlns="http://www.w3.org/2000/svg"><path d="m160.035156 13.179688c3.484375-6.035157 12.085938-6.035157 15.566406 0 30.921876 53.617187 143.824219 82.191406 151.949219 169.167968 7.175781 76.78125-50.441406 139.605469-159.734375 139.605469-109.289062 0-166.90625-62.824219-159.730468-139.605469 8.125-86.976562 121.027343-115.550781 151.949218-169.167968zm0 0" fill="#c8afeb"/><path d="m160.035156 13.179688c-30.921875 53.617187-143.824218 82.191406-151.949218 169.167968-7.175782 76.78125 50.441406 139.605469 159.730468 139.605469v-313.300781c-3.019531 0-6.039062 1.511718-7.78125 4.527344zm0 0" fill="#9678cd"/><path d="m163.539062 13.179688c1.914063-6.035157 6.644532-6.035157 8.558594 0 17.007813 53.617187 79.105469 82.191406 83.574219 169.167968 3.945313 76.78125-27.742187 139.605469-87.855469 139.605469-60.109375 0-91.796875-62.824219-87.851562-139.605469 4.46875-86.976562 66.566406-115.550781 83.574218-169.167968zm0 0" fill="#aa91dc"/><path d="m336.398438 156.824219c3.484374-6.035157 12.085937-6.035157 15.566406 0 30.921875 53.617187 143.824218 82.191406 151.949218 169.167969 7.175782 76.78125-50.441406 139.605468-159.734374 139.605468-109.289063 0-166.90625-62.824218-159.730469-139.605468 8.125-86.976563 121.027343-115.550782 151.949219-169.167969zm0 0" fill="#fff6d8"/><path d="m471.988281 328.976562c-3.621093-38.761718-39.242187-63.828124-76.957031-90.367187-8.785156-6.183594-17.421875-12.257813-25.617188-18.492187-7.472656-5.6875-16.351562-8.527344-25.230468-8.527344s-17.757813 2.839844-25.234375 8.527344c-8.195313 6.234374-16.832031 12.308593-25.617188 18.492187-37.710937 26.539063-73.335937 51.609375-76.957031 90.367187-2.433594 26.054688 4.851562 49.234376 21.0625 67.035157 13.609375 14.941406 33.324219 25.675781 57.429688 31.703125 20.230468 5.058594 40.28125-9.082032 42.582031-29.808594l2.648437-23.820312c.269532-2.433594 2.175782-3.652344 4.082032-3.652344 1.910156 0 3.816406 1.21875 4.085937 3.652344l2.644531 23.820312c2.304688 20.726562 22.355469 34.867188 42.585938 29.808594 24.105468-6.027344 43.816406-16.761719 57.429687-31.703125 16.214844-17.800781 23.496094-40.980469 21.0625-67.035157zm0 0" fill="#e6646e"/><path d="m400.296875 329.316406c0-30.992187-25.121094-56.117187-56.113281-56.117187-30.992188 0-56.117188 25.125-56.117188 56.117187 0 29.199219 22.304688 53.167969 50.800782 55.847656l1.230468-11.074218c.269532-2.4375 2.175782-3.65625 4.085938-3.65625 1.90625 0 3.8125 1.21875 4.082031 3.65625l1.230469 11.074218c28.496094-2.679687 50.800781-26.648437 50.800781-55.847656zm0 0" fill="#ff8087"/><path d="m511.382812 325.292969c-5.320312-56.929688-52.210937-89.929688-93.582031-119.042969-24.816406-17.464844-48.261719-33.960938-59.339843-53.171875-2.992188-5.183594-8.328126-8.28125-14.28125-8.28125-5.949219 0-11.285157 3.097656-14.277344 8.28125-.261719.453125-.535156.902344-.808594 1.351563-14.933594-41.289063-53.355469-68.339844-87.65625-92.476563-24.816406-17.464844-48.261719-33.960937-59.339844-53.171875-2.988281-5.1875-8.328125-8.28125-14.28125-8.28125-5.949218 0-11.285156 3.09375-14.277344 8.28125-11.078124 19.210938-34.523437 35.707031-59.339843 53.171875-41.371094 29.113281-88.261719 62.109375-93.582031 119.042969-3.449219 36.910156 7.632812 71.484375 31.203124 97.363281 14.523438 15.9375 33.300782 28.375 55.8125 36.964844 23.441407 8.941406 50.421876 13.476562 80.1875 13.476562 2.976563 0 5.945313-.050781 8.886719-.144531-2.488281 35.644531 8.625 68.910156 31.480469 94 14.519531 15.9375 33.296875 28.375 55.8125 36.964844 23.441406 8.941406 50.417969 13.476562 80.183594 13.476562s56.742187-4.535156 80.183594-13.476562c22.515624-8.589844 41.292968-21.023438 55.8125-36.964844 23.570312-25.875 34.652343-60.453125 31.203124-97.363281zm-468.472656-57.039063c-20.992187-23.042968-30.453125-52.734375-27.355468-85.863281 4.671874-50.039063 46.667968-79.59375 87.277343-108.167969 10.097657-7.105468 19.976563-14.0625 29.035157-21.191406-2.628907 3.460938-5.335938 6.929688-8.074219 10.4375-22.710938 29.054688-48.449219 61.988281-51.320313 117.839844-2.625 51.097656 10.132813 95.417968 35.003906 121.597656 1.402344 1.480469 2.84375 2.894531 4.320313 4.246094-28.519531-7.316406-52.148437-20.523438-68.886719-38.898438zm124.90625 45.546875c-19.445312 0-36.085937-7.140625-49.464844-21.222656-22.050781-23.214844-33.3125-63.488281-30.898437-110.5 2.628906-51.117187 25.773437-80.734375 48.15625-109.371094 12.675781-16.21875 24.738281-31.652343 32.207031-49.988281 7.472656 18.335938 19.53125 33.765625 32.207032 49.988281 5.914062 7.5625 12.027343 15.386719 17.753906 23.648438 2.359375 3.40625 7.03125 4.253906 10.4375 1.894531s4.25-7.03125 1.890625-10.4375c-5.96875-8.617188-12.21875-16.613281-18.261719-24.34375-2.742188-3.507812-5.449219-6.976562-8.078125-10.4375 9.0625 7.128906 18.941406 14.085938 29.039063 21.191406 36.730468 25.847656 74.667968 52.570313 84.976562 94.589844-12.328125 12.886719-29.417969 24.914062-47.21875 37.4375-2.546875 1.792969-5.117188 3.601562-7.695312 5.429688.722656-9.839844.828124-19.996094.292968-30.371094-1.175781-22.933594-6.273437-43.734375-15.578125-63.589844-1.761719-3.75-6.226562-5.367188-9.976562-3.605469-3.75 1.757813-5.367188 6.222657-3.609375 9.972657 8.46875 18.0625 13.105468 37.03125 14.183594 57.992187.742187 14.40625.175781 28.335937-1.644532 41.457031-30.660156 23.003906-59.433594 50.175782-67.691406 89.445313-3.574219.539062-7.265625.820312-11.027344.820312zm301.273438 98.753907c-26.753906 29.367187-71.113282 45.542968-124.90625 45.542968-53.796875 0-98.15625-16.175781-124.90625-45.546875-20.996094-23.042969-30.457032-52.734375-27.359375-85.859375 4.675781-50.042968 46.667969-79.59375 87.277343-108.171875 26.210938-18.445312 50.96875-35.867187 63.703126-57.945312.296874-.515625.726562-.773438 1.285156-.773438.554687 0 .988281.257813 1.285156.773438 12.730469 22.078125 37.488281 39.5 63.699219 57.945312 40.613281 28.578125 82.605469 58.128907 87.28125 108.171875 3.09375 33.125-6.367188 62.816406-27.359375 85.863282zm0 0"/><path d="m399.03125 232.109375c-3.390625-2.394531-8.078125-1.582031-10.464844 1.8125-2.378906 3.378906-1.574218 8.046875 1.800782 10.433594 34.578124 24.445312 71.039062 51.976562 74.152343 85.316406 2.230469 23.898437-4.382812 45.089844-19.136719 61.289063-12.386718 13.59375-30.957031 23.789062-53.707031 29.480468-7.472656 1.871094-15.414062.398438-21.789062-4.03125-6.457031-4.488281-10.65625-11.535156-11.519531-19.332031l-2.605469-23.453125c-.671875-6.035156-5.742188-10.804688-11.816407-10.691406-5.914062.113281-10.648437 4.421875-11.304687 10.328125l-2.644531 23.816406c-.867188 7.796875-5.066406 14.84375-11.523438 19.332031-6.371094 4.429688-14.3125 5.898438-21.785156 4.03125-22.75-5.691406-41.324219-15.886718-53.707031-29.480468-14.753907-16.195313-21.371094-37.386719-19.136719-61.289063 3.296875-35.3125 37.546875-59.414063 73.839844-84.953125 9.003906-6.335938 17.507812-12.324219 25.804687-18.632812 12.128907-9.222657 29.042969-9.265626 41.214844-.128907 3.21875 2.417969 7.886719 2.0625 10.464844-1.03125 2.757812-3.304687 2.175781-8.203125-1.214844-10.777343-17.527344-13.335938-42.015625-13.335938-59.546875 0-8.074219 6.140624-16.46875 12.046874-25.390625 18.328124-39.171875 27.5625-76.167969 53.597657-80.109375 95.800782-2.636719 28.214844 5.3125 53.382812 22.980469 72.785156 14.382812 15.789062 35.53125 27.519531 61.15625 33.929688 11.675781 2.921874 24.066406.636718 33.992187-6.265626 8.785156-6.105468 14.875-15.273437 17.144532-25.601562 2.269531 10.328125 8.359374 19.492188 17.144531 25.601562 7.097656 4.933594 15.449219 7.507813 23.902343 7.507813 3.371094 0 6.757813-.410156 10.085938-1.242187 25.628906-6.410157 46.773438-18.140626 61.15625-33.929688 17.671875-19.402344 25.621094-44.570312 22.984375-72.785156-3.734375-40.007813-42.980469-69.703125-80.421875-96.167969zm0 0"/><path d="m267.527344 369.050781c1.609375 0 3.230468-.515625 4.601562-1.582031l4.507813-3.503906c3.269531-2.546875 3.859375-7.257813 1.316406-10.527344s-7.253906-3.859375-10.523437-1.316406l-4.507813 3.507812c-3.273437 2.542969-3.859375 7.257813-1.316406 10.523438 1.476562 1.902344 3.6875 2.898437 5.921875 2.898437zm0 0"/><path d="m271.042969 326.652344c2.585937-3.234375 2.0625-7.953125-1.171875-10.542969l-2.503906-2.003906c-3.234376-2.585938-7.957032-2.0625-10.542969 1.171875-2.585938 3.234375-2.0625 7.953125 1.171875 10.542968l2.503906 2.003907c1.382812 1.105469 3.035156 1.644531 4.679688 1.644531 2.203124 0 4.382812-.964844 5.863281-2.816406zm0 0"/><path d="m303.433594 291.390625c1.695312 0 3.398437-.570313 4.796875-1.738281 3.183593-2.652344 3.613281-7.382813.960937-10.566406l-2.503906-3.003907c-2.652344-3.183593-7.382812-3.613281-10.5625-.960937-3.183594 2.652344-3.613281 7.382812-.960938 10.5625l2.503907 3.007812c1.484375 1.78125 3.617187 2.699219 5.765625 2.699219zm0 0"/><path d="m349.042969 252.574219 2.503906-1.5c3.554687-2.132813 4.703125-6.738281 2.574219-10.292969-2.132813-3.550781-6.738282-4.703125-10.289063-2.570312l-2.507812 1.5c-3.550781 2.132812-4.703125 6.738281-2.570313 10.292968 1.402344 2.34375 3.890625 3.640625 6.4375 3.640625 1.3125 0 2.644532-.34375 3.851563-1.070312zm0 0"/><path d="m378.199219 287.132812c1.46875 2.015626 3.753906 3.089844 6.070312 3.089844 1.53125 0 3.074219-.46875 4.40625-1.4375l5.511719-4.007812c3.351562-2.4375 4.089844-7.125 1.65625-10.476563-2.4375-3.351562-7.128906-4.089843-10.480469-1.65625l-5.511719 4.011719c-3.347656 2.433594-4.089843 7.125-1.652343 10.476562zm0 0"/><path d="m420.011719 308.136719c-.8125-4.0625-4.765625-6.695313-8.824219-5.882813-4.0625.8125-6.699219 4.765625-5.886719 8.824219l1.003907 5.011719c.710937 3.566406 3.84375 6.03125 7.347656 6.03125.484375 0 .980468-.046875 1.476562-.148438 4.0625-.8125 6.699219-4.761718 5.886719-8.824218zm0 0"/><path d="m424.5 354.5625 4.007812 2.003906c1.078126.539063 2.222657.792969 3.351563.792969 2.75 0 5.398437-1.519531 6.714844-4.148437 1.851562-3.703126.347656-8.207032-3.355469-10.0625l-4.007812-2.003907c-3.707032-1.851562-8.210938-.351562-10.066407 3.355469-1.851562 3.703125-.347656 8.210938 3.355469 10.0625zm0 0"/><path d="m397.472656 385.097656v1.003906c0 4.140626 3.359375 7.5 7.5 7.5 4.144532 0 7.503906-3.359374 7.503906-7.5v-1.003906c0-4.140625-3.359374-7.5-7.503906-7.5-4.140625 0-7.5 3.359375-7.5 7.5zm0 0"/><path d="m312.625 343.769531c3.554688-2.125 4.714844-6.730469 2.589844-10.285156l-4.855469-8.121094c-2.125-3.554687-6.730469-4.714843-10.285156-2.589843-3.558594 2.125-4.714844 6.730468-2.589844 10.285156l4.851563 8.121094c1.40625 2.351562 3.894531 3.65625 6.445312 3.65625 1.308594 0 2.636719-.34375 3.84375-1.066407zm0 0"/><path d="m354.207031 329.300781c1.566407 0 3.148438-.488281 4.496094-1.5l2.003906-1.503906c3.3125-2.484375 3.984375-7.1875 1.5-10.5s-7.183593-3.984375-10.5-1.5l-2.003906 1.503906c-3.3125 2.484375-3.984375 7.1875-1.5 10.5 1.472656 1.964844 3.726563 3 6.003906 3zm0 0"/><path d="m291.734375 383.9375c-2.277344 3.460938-1.320313 8.113281 2.140625 10.390625l2.089844 1.375c1.273437.835937 2.703125 1.238281 4.117187 1.238281 2.441407 0 4.832031-1.1875 6.273438-3.378906 2.277343-3.457031 1.320312-8.109375-2.140625-10.386719l-2.089844-1.378906c-3.460938-2.277344-8.113281-1.316406-10.390625 2.140625zm0 0"/><path d="m340 279.726562c-3.316406-2.484374-8.015625-1.8125-10.503906 1.5-2.484375 3.3125-1.8125 8.015626 1.5 10.5l2.003906 1.503907c1.351562 1.011719 2.929688 1.5 4.496094 1.5 2.28125 0 4.53125-1.039063 6.007812-3 2.484375-3.3125 1.8125-8.015625-1.5-10.5zm0 0"/><path d="m375.898438 344.152344c-3.703126 1.851562-5.207032 6.355468-3.351563 10.0625l.5 1c1.3125 2.628906 3.960937 4.148437 6.714844 4.148437 1.125 0 2.269531-.253906 3.347656-.792969 3.707031-1.851562 5.207031-6.355468 3.355469-10.0625l-.503906-1c-1.851563-3.707031-6.355469-5.207031-10.0625-3.355468zm0 0"/></svg>